<svg version="1.1" id="Capa_1" xmlns="http://www.w3.org/2000/svg" xmlns:xlink="http://www.w3.org/1999/xlink" x="0px" y="0px" viewBox="0 0 500 700">
<mask id="mask0" mask-type="alpha">
	<path class="st0" d="M500,509.97v-219.5c0-29.91-15.34-57.74-40.64-73.7L296.52,113.98c-28.42-17.94-64.63-17.94-93.05,0
	L40.64,216.76C15.34,232.73,0,260.55,0,290.47v219.5c0,29.91,15.34,57.74,40.64,73.7l162.84,102.79c28.42,17.94,64.63,17.94,93.05,0
	l162.84-102.79C484.66,567.71,500,539.89,500,509.97z" />
</mask>
	<g mask="url(#mask0)">
		<path class="st1" d="M500,509.97v-219.5c0-29.91-15.34-57.74-40.64-73.7L296.52,113.98c-28.42-17.94-64.63-17.94-93.05,0
	L40.64,216.76C15.34,232.73,0,260.55,0,290.47v219.5c0,29.91,15.34,57.74,40.64,73.7l162.84,102.79c28.42,17.94,64.63,17.94,93.05,0
	l162.84-102.79C484.66,567.71,500,539.89,500,509.97z" />
	</g>
	<image xlink:href="assets/img/perfil.png"/>
</svg>
