<?xml version="1.0" encoding="utf-8"?>
<!-- Generator: Adobe Illustrator 25.4.1, SVG Export Plug-In . SVG Version: 6.00 Build 0)  -->
<svg version="1.1" id="Capa_1" xmlns="http://www.w3.org/2000/svg" xmlns:xlink="http://www.w3.org/1999/xlink" x="0px" y="0px"
	 viewBox="0 0 500 700" style="enable-background:new 0 0 500 700;" xml:space="preserve">
<path d="M476.4,312.9V433H15.1V312.9c0-33.2,20.5-63,51.6-74.8l150.6-57.3c18.3-7,38.5-7,56.8,0l150.6,57.3
	C455.9,249.9,476.4,279.7,476.4,312.9z"/>
<path d="M476.4,503.8V383.7H15.1v120.1c0,33.2,20.5,63,51.6,74.8l150.6,57.3c18.3,7,38.5,7,56.8,0l150.6-57.3
	C455.9,566.8,476.4,537,476.4,503.8z"/>
<g>
	<defs>
		<path id="SVGID_1_" d="M476.4,503.8V64H15.1v439.8c0,33.2,20.5,63,51.6,74.8l150.6,57.3c18.3,7,38.5,7,56.8,0l150.6-57.3
			C455.9,566.8,476.4,537,476.4,503.8z"/>
	</defs>
	<clipPath id="SVGID_00000066477685182960071940000009821411831726314163_">
		<use xlink:href="#SVGID_1_"  style="overflow:visible;"/>
	</clipPath>
	<g style="clip-path:url(#SVGID_00000066477685182960071940000009821411831726314163_);">
		
			<image style="overflow:visible;" width="447" height="559" xlink:href="perfil.png"  transform="matrix(1.081 0 0 1.081 3.3938 36.8997)">
		</image>
	</g>
</g>
<image style="display:none;overflow:visible;" width="447" height="559" xlink:href="perfil.png"  transform="matrix(1.081 0 0 1.081 3.3938 36.8997)">
</image>
</svg>
